<svg width="25" height="24" viewBox="0 0 25 24" fill="none" xmlns="http://www.w3.org/2000/svg">
<path d="M13.6663 2V4C18.0563 4.54 21.1663 8.53 20.6263 12.92C20.4056 14.689 19.6013 16.3339 18.3407 17.5944C17.0802 18.855 15.4353 19.6593 13.6663 19.88V21.88C19.1663 21.28 23.1163 16.34 22.5163 10.85C21.9963 6.19 18.3263 2.5 13.6663 2ZM11.6663 2C9.70631 2.18 7.85631 2.95 6.33631 4.2L7.76631 5.74C8.88631 4.84 10.2363 4.26 11.6663 4.06V2ZM4.92631 5.67C3.67199 7.18495 2.90201 9.04196 2.71631 11H4.71631C4.90631 9.58 5.46631 8.23 6.35631 7.1L4.92631 5.67ZM2.72631 13C2.92631 14.96 3.69631 16.81 4.93631 18.33L6.35631 16.9C5.47324 15.7696 4.91026 14.4226 4.72631 13H2.72631ZM7.72631 18.37L6.33631 19.74C7.85109 21.0027 9.70558 21.789 11.6663 22V20C10.2437 19.816 8.89671 19.2531 7.76631 18.37H7.72631Z" fill="#0E206A"/>
</svg>
