<svg width="20" height="20" viewBox="0 0 20 20" fill="none" xmlns="http://www.w3.org/2000/svg">
<path d="M10.95 0.0151367V2.03514C15.34 2.57514 18.45 6.56514 17.91 10.9551C17.45 14.5951 14.59 17.4851 10.95 17.9151V19.9151C16.45 19.3651 20.45 14.4851 19.9 8.98514C19.45 4.23514 15.68 0.485137 10.95 0.0151367ZM8.95 0.0451367C7 0.235137 5.14 0.985137 3.62 2.24514L5.05 3.72514C6.17 2.82514 7.52 2.24514 8.95 2.04514V0.0451367ZM2.21 3.65514C0.959656 5.17248 0.190202 7.02822 0 8.98514H2C2.19 7.56514 2.75 6.21514 3.64 5.08514L2.21 3.65514ZM0.00999999 10.9851C0.21 12.9451 0.98 14.7951 2.22 16.3151L3.64 14.8851C2.75693 13.7547 2.19395 12.4077 2.01 10.9851H0.00999999ZM5.05 16.3551L3.62 17.7251C5.13478 18.9878 6.98927 19.7742 8.95 19.9851V17.9851C7.5274 17.8012 6.1804 17.2382 5.05 16.3551ZM10.45 4.98514V10.2351L14.95 12.9051L14.2 14.1351L8.95 10.9851V4.98514H10.45Z" fill="#0E206A"/>
</svg>
