<svg width="25" height="24" viewBox="0 0 25 24" fill="none" xmlns="http://www.w3.org/2000/svg">
<path d="M13.3333 2.02979V4.04979C17.7233 4.58979 20.8333 8.57979 20.2933 12.9698C19.8333 16.6098 16.9733 19.4998 13.3333 19.9298V21.9298C18.8333 21.3798 22.8333 16.4998 22.2833 10.9998C21.8333 6.24979 18.0633 2.49979 13.3333 2.02979ZM11.3333 2.05979C9.3833 2.24979 7.5233 2.99979 6.0033 4.25979L7.4333 5.73978C8.5533 4.83979 9.9033 4.25979 11.3333 4.05979V2.05979ZM4.5933 5.66979C3.34296 7.18713 2.5735 9.04287 2.3833 10.9998H4.3833C4.5733 9.57979 5.1333 8.22978 6.0233 7.09978L4.5933 5.66979ZM15.8333 8.49979L10.9533 13.3798L8.8333 11.2598L7.7733 12.3198L10.9533 15.4998L16.8933 9.55979L15.8333 8.49979ZM2.3933 12.9998C2.5933 14.9598 3.3633 16.8098 4.6033 18.3298L6.0233 16.8998C5.14023 15.7694 4.57725 14.4224 4.3933 12.9998H2.3933ZM7.4333 18.3698L6.0033 19.7398C7.51808 21.0025 9.37257 21.7888 11.3333 21.9998V19.9998C9.9107 19.8158 8.56371 19.2529 7.4333 18.3698Z" fill="#0E206A"/>
</svg>
