<svg width="24" height="24" viewBox="0 0 24 24" fill="none" xmlns="http://www.w3.org/2000/svg">
<g id="file-earmark-plus">
<g id="Vector">
<path d="M12 9.75C12.4142 9.75 12.75 10.0858 12.75 10.5V12.75H15C15.4142 12.75 15.75 13.0858 15.75 13.5C15.75 13.9142 15.4142 14.25 15 14.25H12.75V16.5C12.75 16.9142 12.4142 17.25 12 17.25C11.5858 17.25 11.25 16.9142 11.25 16.5V14.25H9C8.58579 14.25 8.25 13.9142 8.25 13.5C8.25 13.0858 8.58579 12.75 9 12.75H11.25V10.5C11.25 10.0858 11.5858 9.75 12 9.75Z" fill="#D3D5E4"/>
<path d="M21 6.75V21C21 22.6569 19.6569 24 18 24H6C4.34315 24 3 22.6569 3 21V3C3 1.34314 4.34315 0 6 0H14.25L21 6.75ZM16.5 6.75C15.2574 6.75 14.25 5.74264 14.25 4.5V1.5H6C5.17157 1.5 4.5 2.17157 4.5 3V21C4.5 21.8284 5.17157 22.5 6 22.5H18C18.8284 22.5 19.5 21.8284 19.5 21V6.75H16.5Z" fill="#D3D5E4"/>
</g>
</g>
</svg>
